<svg width="480" height="480" viewBox="0 0 467 480" fill="none" xmlns="http://www.w3.org/2000/svg"><mask id="a" style="mask-type:alpha" maskUnits="userSpaceOnUse" x="54" y="73" width="244" height="236"><path transform="rotate(49.93 207.248 73.373)" fill="#D9D9D9" d="M207.248 73.373h139.616V273.05H207.248z"/></mask><g filter="url(#filter0_d_32_6)" mask="url(#a)"><path fill-rule="evenodd" clip-rule="evenodd" d="M219.51 106.747c2.193.804 3.716 2.28 4.567 4.427 1.841 3.522 2.743 7.26 2.708 11.215 10.936 4.586 19.576 11.836 25.919 21.752 2.221 3.532 3.274 7.35 3.158 11.452a38.284 38.284 0 00-2.67 2.331c5.001 8.716 6.878 18.053 5.632 28.012l-1.744 1.668a16.41 16.41 0 00-2.738.28c.319 8.527-1.23 16.725-4.649 24.595-.473 4.161.853 7.643 3.977 10.446a472.664 472.664 0 0019.297 12.498c8.645 6.403 13.652 14.9 15.022 25.49 10.803 4.471 17.529 12.437 20.18 23.899a65.375 65.375 0 005.335 20.949 41.122 41.122 0 009.415 11.593c5.006.266 6.246 2.456 3.723 6.571-6.051 1.176-11.995.625-17.833-1.652 5.285 10.029 12.77 18.013 22.455 23.95.406.503.583 1.076.531 1.72-.558 3.185-2.366 4.245-5.421 3.179-13.287-2.162-25.549-6.914-36.786-14.255-10.15-8.078-13.448-18.358-9.894-30.839a94.791 94.791 0 006.122-19.212 4.538 4.538 0 00-.399-2.513c-8.86 14.463-21.698 21.877-38.515 22.242-4.346 2.188-7.231 5.651-8.655 10.391a142.42 142.42 0 00-1.393 11.351c-1.655 5.513-5.33 8.656-11.024 9.428a36.33 36.33 0 01-10.663-1.605c-7.857.04-15.113 2.154-21.768 6.341a451.753 451.753 0 01-9.406-1.804 28.83 28.83 0 01-7.972 5.285c-8.179-.873-12.822-5.34-13.927-13.402.61-2.476 2.125-4.073 4.546-4.792-.688-2.846.306-4.91 2.984-6.193 4.532-2.674 9.364-3.286 14.497-1.838a88.173 88.173 0 017.224 2.666c5.703-2.008 11.558-2.559 17.566-1.655 3.369-1.643 5.29-4.37 5.76-8.18.424-2.556.633-5.131.628-7.726a217.5 217.5 0 00-2.792-17.59 44.068 44.068 0 011.193-12.608c-11.613-6.978-20.161-16.579-25.647-28.802a162.524 162.524 0 01-2.377-10.752c-10.62-1.226-19.936-5.381-27.948-12.463-5.307-1.564-9.252.093-11.835 4.97a13.535 13.535 0 00-1.847 6.219c1.729 4.369 2.235 8.858 1.52 13.465-2.427 6.633-7.168 9.98-14.225 10.039-1.441-.327-2.562-1.111-3.362-2.352-1.448-4.845-1.452-9.74-.012-14.683a47.905 47.905 0 00-.535-6.614 53.804 53.804 0 01-4.041 7.649c-4.733 4.715-9.786 5.019-15.159.913a9.086 9.086 0 01-.717-3.545 265.355 265.355 0 003.905-11.749c.43-3.573.965-7.128 1.605-10.663a36.896 36.896 0 014.041-7.65 22.42 22.42 0 017.14-3.71 29.27 29.27 0 003.252-2.886c3.081-6.735 8.148-11.06 15.201-12.976 4.036-.211 7.652.933 10.85 3.43a456.9 456.9 0 0011.622 9.593 15.445 15.445 0 005.968 2.866 113.033 113.033 0 0110.77-13.303 226.67 226.67 0 0118.559-15.519 29.273 29.273 0 006.817-9.636c.576-2.023.698-4.069.365-6.138-5.766 3.024-11.854 3.836-18.265 2.436-4.418 2.783-8.699 2.536-12.845-.743-6.172-6.162-6.371-12.502-.598-19.021a77.608 77.608 0 0015.757-12.395 63.798 63.798 0 0112.93-8.133 73.162 73.162 0 005.994-13.524c2.268-.819 3.922-.137 4.962 2.046a153.178 153.178 0 012.127-3.481 5.346 5.346 0 001.838-.755zm.356 14.577c.084 1.231-.096 2.479-.539 3.744.121.755.447 1.407.98 1.957 10.721 3.78 19.378 10.272 25.97 19.476-3.252-1.005-5.137.205-5.658 3.629 5.703 7.907 9.644 16.608 11.821 26.102a21.148 21.148 0 01-3.018-2.458c-2.911-1.069-4.604-.045-5.077 3.073 3.141 6.525 4.126 13.376 2.954 20.554a540.382 540.382 0 00-4.457 16.062c.077 5.935 2.356 10.88 6.838 14.836a542.97 542.97 0 0019.747 12.735c8.949 6.753 12.696 15.639 11.24 26.658 2.409 3.244 4.573 3.141 6.494-.309 7.856 4.395 12.717 10.991 14.581 19.789.757 10.589 4.222 20.19 10.395 28.802a10.108 10.108 0 01-3.956-1.227 69.266 69.266 0 00-8.192-5.191c-1.891.474-3.019 1.7-3.384 3.68 4.264 10.329 10.162 19.681 17.697 28.054a76.832 76.832 0 01-17.362-7.445c-8.631-4.938-12.526-12.272-11.685-22.002a329.346 329.346 0 016.597-20.112c.961-3.907.781-7.743-.539-11.508-2.328-3.502-5.451-4.672-9.369-3.51-7.251 14.942-19.07 22.607-35.457 22.993-7.409 2.451-12.264 7.465-14.565 15.04a47.65 47.65 0 00-1.392 11.351c-1.676 4.034-4.708 5.598-9.097 4.69-7.313-2.385-14.492-2.053-21.535.997a165.1 165.1 0 00-7.933 3.578 222.693 222.693 0 00-9.288-2.029 190.883 190.883 0 01-7.522 5.523c-7.071-2.303-7.245-4.698-.522-7.183 1.666-1.651 1.973-3.503.921-5.556a15.01 15.01 0 016.376-.085 257.89 257.89 0 0010.162 3.642c5.277-2.627 10.832-3.337 16.666-2.13 6.063-1.196 9.976-4.789 11.737-10.778 1.819-6.698 2.122-13.445.909-20.239-4.697-13.158-2.012-24.593 8.053-34.307.553-3.614-.93-5.164-4.449-4.653a28.825 28.825 0 00-8.43 10.51c-11.251-6.365-18.935-15.605-23.054-27.719l-.691-4.682a110.687 110.687 0 0012.221-1.889c2.288-2.128 2.335-4.214.14-6.257-3.838.24-7.678.609-11.521 1.108-18.193.258-31.983-7.411-41.37-23.008-4.535-3.373-9.271-3.669-14.207-.888-7.314 4.248-13.209 9.958-17.685 17.132-.736 2.511-.487 4.945.747 7.302-.292 3.452-1.647 6.381-4.067 8.786-.864.428-1.698.371-2.5-.169a50.801 50.801 0 004.759-19.357 18.444 18.444 0 012.853-5.399c6.946-2.485 12.057-7.075 15.332-13.771 2.792-3.562 6.226-4.433 10.303-2.614 4.562 3.695 9.147 7.363 13.753 11.007 2.982 2.216 6.29 3.58 9.924 4.092a10.354 10.354 0 004.946-2.279 75.835 75.835 0 019.381-12.31 850.942 850.942 0 0121.123-18.193c5.481-5.441 7.98-11.987 7.497-19.637a36.468 36.468 0 00-3.154-6.558c-.944-.905-2.074-1.31-3.388-1.214a53.645 53.645 0 01-7.271 4.503c-2.189.481-4.394.66-6.614.535.306-1.678.534-3.38.684-5.106-2.339-2.938-4.504-2.834-6.495.309-.416 2.32-1.521 4.23-3.315 5.731-4.328.29-6.482-1.807-6.461-6.291.987-3.04 3.076-4.815 6.266-5.323a145.956 145.956 0 0117.633-14.857 23.205 23.205 0 015.977-2.598 364.825 364.825 0 005.404-7.504c1.238 1.538 2.817 2.181 4.737 1.927a3.48 3.48 0 001.401-1.562zm-71.46 90.592a18.632 18.632 0 012.199 3.464 12.832 12.832 0 00-5.99 3.167c.377-2.705 1.641-4.915 3.791-6.631zm-9.101-.204a27.029 27.029 0 01-.883 3.851 44.935 44.935 0 00-10.65 13.078 38.069 38.069 0 00-1.023-5.145 76.991 76.991 0 0112.556-11.784zm1.121 10.952c-3.602 5.837-4.043 11.936-1.321 18.296 1.076 4.804-.738 7.874-5.442 9.211-.036-2.74.252-5.465.866-8.176a36.753 36.753 0 00-.458-10.026 15.522 15.522 0 012.615-4.95 33.686 33.686 0 003.74-4.355z" fill="#fff"/></g><mask id="b" style="mask-type:alpha" maskUnits="userSpaceOnUse" x="154" y="171" width="244" height="236"><path transform="rotate(-130.07 244.79 406.724)" fill="#D9D9D9" d="M244.79 406.724h139.616v199.677H244.79z"/></mask><g filter="url(#filter1_d_32_6)" mask="url(#b)"><path fill-rule="evenodd" clip-rule="evenodd" d="M232.714 378.316c-2.194-.805-3.716-2.281-4.568-4.428-1.84-3.521-2.743-7.259-2.708-11.215-10.935-4.585-19.575-11.836-25.918-21.751-2.221-3.533-3.274-7.35-3.158-11.453a39.017 39.017 0 002.67-2.33c-5.001-8.716-6.879-18.053-5.633-28.012l1.745-1.668a16.517 16.517 0 002.738-.28c-.32-8.527 1.23-16.725 4.649-24.595.473-4.161-.853-7.643-3.978-10.447a472.328 472.328 0 00-19.297-12.497c-8.644-6.404-13.651-14.901-15.022-25.491-10.802-4.47-17.529-12.437-20.179-23.899a65.364 65.364 0 00-5.336-20.948 41.074 41.074 0 00-9.415-11.593c-5.005-.267-6.246-2.457-3.722-6.571 6.05-1.176 11.995-.625 17.832 1.651-5.284-10.029-12.769-18.012-22.455-23.95a2.335 2.335 0 01-.53-1.719c.558-3.185 2.365-4.245 5.421-3.179 13.287 2.162 25.548 6.913 36.785 14.255 10.151 8.078 13.449 18.357 9.895 30.839a94.729 94.729 0 00-6.122 19.212 4.539 4.539 0 00.399 2.513c8.859-14.463 21.697-21.878 38.514-22.242 4.347-2.188 7.232-5.652 8.656-10.392.615-3.761 1.08-7.544 1.392-11.35 1.656-5.514 5.33-8.656 11.024-9.428a36.32 36.32 0 0110.663 1.605c7.858-.04 15.114-2.154 21.768-6.342 3.141.568 6.276 1.17 9.407 1.804a28.812 28.812 0 017.972-5.284c8.179.872 12.822 5.339 13.927 13.401-.61 2.476-2.125 4.074-4.546 4.792.688 2.846-.307 4.911-2.985 6.194-4.531 2.673-9.363 3.286-14.496 1.837a87.33 87.33 0 01-7.225-2.666c-5.702 2.008-11.557 2.56-17.565 1.656-3.37 1.643-5.29 4.369-5.76 8.179a46.596 46.596 0 00-.629 7.726 218.04 218.04 0 002.793 17.591 44.1 44.1 0 01-1.193 12.607c11.612 6.979 20.161 16.579 25.647 28.802a162.806 162.806 0 012.377 10.752c10.619 1.227 19.936 5.381 27.948 12.464 5.307 1.563 9.252-.093 11.835-4.971a13.53 13.53 0 001.846-6.218c-1.729-4.37-2.235-8.859-1.519-13.465 2.426-6.634 7.168-9.98 14.225-10.039 1.441.327 2.561 1.11 3.362 2.352 1.448 4.845 1.452 9.739.012 14.683a47.89 47.89 0 00.535 6.613 53.858 53.858 0 014.041-7.649c4.733-4.715 9.786-5.019 15.159-.912a9.08 9.08 0 01.717 3.544 266.285 266.285 0 00-3.906 11.75 181.018 181.018 0 01-1.604 10.663 36.94 36.94 0 01-4.042 7.649 22.38 22.38 0 01-7.14 3.71 29.461 29.461 0 00-3.251 2.887c-3.082 6.735-8.149 11.06-15.201 12.976-4.036.21-7.653-.933-10.85-3.43a457.357 457.357 0 00-11.623-9.594 15.43 15.43 0 00-5.968-2.865 113.006 113.006 0 01-10.769 13.303 227.074 227.074 0 01-18.559 15.519 29.255 29.255 0 00-6.818 9.636 14.018 14.018 0 00-.365 6.138c5.767-3.024 11.855-3.836 18.266-2.437 4.417-2.783 8.699-2.535 12.845.744 6.171 6.161 6.371 12.502.598 19.021a77.574 77.574 0 00-15.757 12.395 63.805 63.805 0 01-12.93 8.132 73.162 73.162 0 00-5.994 13.524c-2.269.819-3.923.137-4.962-2.046a160.763 160.763 0 01-2.127 3.481 5.36 5.36 0 00-1.838.756zm-.356-14.577c-.084-1.232.095-2.48.539-3.744a3.548 3.548 0 00-.981-1.957c-10.72-3.781-19.377-10.273-25.97-19.476 3.252 1.005 5.138-.205 5.659-3.629-5.703-7.908-9.644-16.608-11.822-26.102a21.142 21.142 0 013.019 2.458c2.911 1.069 4.603.044 5.076-3.074-3.14-6.524-4.125-13.375-2.954-20.553a539.622 539.622 0 004.458-16.063c-.077-5.934-2.356-10.879-6.838-14.836a543.84 543.84 0 00-19.747-12.735c-8.95-6.753-12.696-15.639-11.24-26.658-2.409-3.244-4.574-3.14-6.495.31-7.856-4.395-12.716-10.992-14.581-19.79-.756-10.589-4.222-20.189-10.395-28.802a10.13 10.13 0 013.956 1.227 69.368 69.368 0 008.193 5.192c1.89-.474 3.018-1.701 3.383-3.68-4.263-10.33-10.162-19.681-17.696-28.055a76.802 76.802 0 0117.361 7.446c8.632 4.938 12.527 12.272 11.686 22.001a330.037 330.037 0 01-6.597 20.112c-.961 3.907-.781 7.743.539 11.508 2.328 3.502 5.451 4.672 9.368 3.511 7.251-14.943 19.071-22.608 35.458-22.994 7.408-2.451 12.263-7.464 14.565-15.039a47.759 47.759 0 001.392-11.351c1.676-4.034 4.708-5.598 9.097-4.69 7.313 2.385 14.491 2.053 21.534-.998a164.157 164.157 0 007.934-3.578c3.088.744 6.184 1.42 9.288 2.029a191.13 191.13 0 017.522-5.522c7.07 2.303 7.244 4.697.522 7.182-1.666 1.652-1.973 3.504-.922 5.557a15.022 15.022 0 01-6.375.085 257.955 257.955 0 00-10.163-3.643c-5.277 2.628-10.832 3.338-16.665 2.131-6.064 1.196-9.976 4.789-11.737 10.777-1.819 6.699-2.122 13.445-.909 20.24 4.696 13.158 2.012 24.593-8.053 34.307-.554 3.613.929 5.164 4.448 4.652a28.809 28.809 0 008.431-10.51c11.251 6.365 18.935 15.605 23.053 27.72l.692 4.682a110.684 110.684 0 00-12.221 1.888c-2.289 2.129-2.335 4.214-.14 6.257 3.838-.24 7.678-.609 11.52-1.107 18.193-.258 31.983 7.411 41.371 23.008 4.535 3.373 9.271 3.668 14.207.887 7.314-4.247 13.209-9.958 17.685-17.132.736-2.511.487-4.944-.747-7.301.291-3.452 1.647-6.381 4.066-8.787.865-.428 1.698-.371 2.501.17a50.792 50.792 0 00-4.759 19.357 18.444 18.444 0 01-2.853 5.399c-6.946 2.484-12.058 7.074-15.333 13.77-2.792 3.562-6.226 4.434-10.302 2.615a1551.154 1551.154 0 00-13.753-11.008c-2.982-2.215-6.29-3.579-9.925-4.092a10.362 10.362 0 00-4.945 2.28 75.878 75.878 0 01-9.381 12.31 853.064 853.064 0 01-21.123 18.193c-5.481 5.441-7.981 11.986-7.497 19.636a36.41 36.41 0 003.154 6.559c.944.905 2.073 1.31 3.387 1.214a53.825 53.825 0 017.272-4.504 24.305 24.305 0 016.613-.535 55.385 55.385 0 00-.683 5.107c2.339 2.937 4.504 2.834 6.494-.31.417-2.319 1.522-4.229 3.316-5.73 4.328-.29 6.481 1.807 6.46 6.291-.987 3.04-3.075 4.814-6.265 5.323a145.866 145.866 0 01-17.634 14.856 23.13 23.13 0 01-5.976 2.598 357.465 357.465 0 00-5.404 7.505c-1.238-1.539-2.817-2.181-4.738-1.927a3.48 3.48 0 00-1.4 1.562zm71.459-90.593a18.647 18.647 0 01-2.198-3.464 12.813 12.813 0 005.989-3.166c-.376 2.704-1.64 4.915-3.791 6.63zm9.101.204c.187-1.243.481-2.526.883-3.85a44.923 44.923 0 0010.651-13.078c.221 1.735.562 3.45 1.023 5.144a76.954 76.954 0 01-12.557 11.784zm-1.12-10.952c3.602-5.837 4.042-11.935 1.321-18.295-1.076-4.804.738-7.875 5.442-9.211a34.861 34.861 0 01-.866 8.175 36.718 36.718 0 00.458 10.027 15.517 15.517 0 01-2.615 4.949 33.675 33.675 0 00-3.74 4.355z" fill="#fff"/></g><g filter="url(#filter2_d_32_6)" fill="#fff"><path d="M270.649 126.615l-3.174-3.102 15.544-9.165 3.344 6.141-8.931 5.244-6.783.882zm-2.509-20.592l-.936-7.192 15.402-2.003.769 7.213-15.235 1.982zm7.013 20.006l-7.228.941-3.58-37.518 7.228-.94 3.58 37.517zm29.425-32.059l7.172-.934 2.667 27.885-7.229.941-2.61-27.893zm-19.072 2.48l7.229-.94 2.666 27.885-7.228.94-2.667-27.885zm21.682 25.412l-6.503-5.22-5.34 6.76-1.225-9.421 5.688-6.692 6.672 5.651.708 8.922zm15.898-2.068l-7.172.933-2.666-27.886 7.228-.94 2.61 27.893zm14.624-1.903l-7.229.941-2.666-27.886 7.228-.94 2.667 27.885zM317.028 92.35l14.179-1.845.935 7.192-14.178 1.844-.936-7.191zm2.002 20.601l14.178-1.844.943 7.247-14.178 1.845-.943-7.248zm-42.942 55.475l-3.174-3.102 15.544-9.165 3.344 6.141-8.93 5.243-6.784.883zm-2.509-20.593l-.936-7.191 15.402-2.004.769 7.213-15.235 1.982zm7.013 20.007l-7.228.94-3.58-37.517 7.228-.94 3.58 37.517zm17.088-17.36l-3.754-6.257 13.422-8.096 3.179 6.616-12.847 7.737zm2.938 14.755l-7.229.94-2.61-27.892 7.172-.933 2.667 27.885zm20.916-2.721l-7.228.94-2.611-27.892 7.228-.941 2.611 27.893zm-2.792-30.59l-7.172.933-.677-6.942 7.228-.94.621 6.949zm13.224 29.233l-7.173.933-2.666-27.885 7.228-.941 2.611 27.893zm-4.337.564l-3.174-3.102 17.111-10.163.979 7.526-8.188 4.864-6.728.875zm-1.453-20.73l-.935-7.192 14.852-1.875.651 7.172-14.568 1.895zm26.247 17.504l-7.172.933-3.58-37.517 7.228-.94 3.524 37.524zm-1.196-7.894l-3.049-8.221 9.196-12.761 9.897-1.287-16.044 22.269zm3.126-12.482l15.307 18.134-8.007 1.042-8.86-10.299 1.56-8.877zm-57.036 35.283l2.081 22.519.087.669-10.503 6.186-4.115.535.991 11.096-7.061.918-3.609-39.044 3.781-.492 3.447-.448 7.673-.998 4.448-.579 2.78-.362zm-6.508 8.217l-.007-.056-7.729 1.006 1.156 13.228 3.614-.47 4.042-2.396-1.076-11.312zm18.937 18.569l-7.172.933-2.667-27.885 7.229-.941 2.61 27.893zm14.623-1.903l-7.228.941-2.666-27.886 7.228-.94 2.666 27.885zm-20.681-25.541l14.179-1.845.935 7.192-14.178 1.844-.936-7.191zm2.002 20.602l14.178-1.845.943 7.247-14.178 1.845-.943-7.247zm29.27 3.562l-7.228.94-2.611-27.892 7.228-.941 2.611 27.893zm-4.883-14.502l-3.81-6.25 13.477-8.103 3.124 6.624-12.791 7.729zm19.506 12.599l-7.228.941-2.666-27.886 7.228-.94 2.666 27.885zm25.005 4.401l-6.815 4.118-3.522-38.375 7.228-.941 3.109 35.198zm-14.899-5.432l-7.172.933-2.667-27.885 7.228-.94 2.611 27.892zm-4.337.564l-3.167-3.046 17.104-10.218.986 7.581-8.195 4.808-6.728.875zm4.767 13.61l-3.809-6.251 13.477-8.103 3.123 6.624-12.791 7.73z"/></g><g filter="url(#filter3_d_32_6)" fill="#fff"><path d="M180.784 351.287l3.228 3.046-15.382 9.435-3.45-6.082 8.837-5.398 6.767-1.001zm2.868 20.546l1.06 7.174-15.364 2.271-.894-7.198 15.198-2.247zm-7.361-19.882l7.211-1.066 4.233 37.449-7.21 1.067-4.234-37.45zm-28.861 32.568l-7.156 1.058-3.151-27.835 7.21-1.066 3.097 27.843zm19.025-2.813l-7.211 1.066-3.152-27.834 7.211-1.066 3.152 27.834zm-22.122-25.03l6.593 5.106 5.222-6.852 1.389 9.398-5.57 6.791-6.77-5.535-.864-8.908zm-15.859 2.345l7.155-1.058 3.152 27.835-7.211 1.066-3.096-27.843zm-14.588 2.157l7.211-1.066 3.151 27.834-7.21 1.066-3.152-27.834zm21.123 25.177l-14.144 2.091-1.061-7.174 14.144-2.091 1.061 7.174zm-2.36-20.564l-14.144 2.092-1.069-7.23 14.144-2.091 1.069 7.229zm41.969-56.213l3.227 3.046-15.382 9.434-3.45-6.082 8.838-5.398 6.767-1zm2.867 20.545l1.061 7.174-15.364 2.272-.895-7.199 15.198-2.247zm-7.36-19.881l7.211-1.066 4.233 37.449-7.211 1.066-4.233-37.449zm-16.784 17.654l3.863 6.192-13.279 8.328-3.293-6.56 12.709-7.96zm-3.193-14.701l7.21-1.066 3.097 27.843-7.156 1.058-3.151-27.835zm-20.866 3.085l7.21-1.066 3.097 27.843-7.211 1.066-3.096-27.843zm3.324 30.537l7.155-1.058.798 6.929-7.211 1.066-.742-6.937zm-13.731-28.998l7.155-1.058 3.152 27.835-7.211 1.066-3.096-27.843zm4.327-.64l3.227 3.046-16.931 10.46-1.11-7.508 8.102-5.006 6.712-.992zm1.813 20.702l1.061 7.174-14.818 2.134-.775-7.16 14.532-2.148zm-26.548-17.045l7.155-1.058 4.233 37.449-7.21 1.066-4.178-37.457zm1.334 7.872l3.191 8.167-8.972 12.919-9.873 1.46L99.8 328.708zm-2.908 12.535l-15.62-17.865 7.987-1.181 9.038 10.143-1.405 8.903zm56.412-36.272l-2.473-22.479-.099-.667 10.395-6.367 4.105-.607-1.185-11.077 7.045-1.042 4.288 38.976-3.771.557-3.439.509-7.655 1.131-4.437.656-2.774.41zm6.364-8.328l.008.056 7.71-1.14-1.386-13.207-3.605.533-3.999 2.467 1.272 11.291zm-19.257-18.236l7.155-1.058 3.151 27.834-7.21 1.066-3.096-27.842zm-14.588 2.156l7.21-1.066 3.152 27.835-7.211 1.066-3.151-27.835zm21.123 25.178l-14.144 2.091-1.061-7.174 14.144-2.091 1.061 7.174zm-2.36-20.564l-14.145 2.091-1.068-7.229 14.144-2.092 1.069 7.23zm-29.328-3.052l7.21-1.066 3.096 27.843-7.21 1.066-3.096-27.843zm5.135 14.414l3.918 6.184-13.334 8.336-3.239-6.568 12.655-7.952zm-19.723-12.257l7.21-1.066 3.152 27.835-7.211 1.066-3.151-27.835zm-25.078-3.964l6.742-4.236 4.19 38.308-7.21 1.066-3.722-35.138zm14.992 5.171l7.155-1.058 3.151 27.835-7.21 1.066-3.096-27.843zm4.326-.639l3.22 2.99-16.924 10.515-1.118-7.563 8.11-4.95 6.712-.992zm-5.004-13.525l3.919 6.184-13.335 8.336-3.238-6.568 12.654-7.952z"/></g><defs><filter id="filter0_d_32_6" x="103.515" y="106.747" width="232.289" height="252.775" filterUnits="userSpaceOnUse" color-interpolation-filters="sRGB"><feFlood flood-opacity="0" result="BackgroundImageFix"/><feColorMatrix in="SourceAlpha" values="0 0 0 0 0 0 0 0 0 0 0 0 0 0 0 0 0 0 127 0" result="hardAlpha"/><feOffset dy="4"/><feGaussianBlur stdDeviation="2"/><feComposite in2="hardAlpha" operator="out"/><feColorMatrix values="0 0 0 0 0 0 0 0 0 0 0 0 0 0 0 0 0 0 0.25 0"/><feBlend in2="BackgroundImageFix" result="effect1_dropShadow_32_6"/><feBlend in="SourceGraphic" in2="effect1_dropShadow_32_6" result="shape"/></filter><filter id="filter1_d_32_6" x="116.42" y="133.54" width="232.289" height="252.775" filterUnits="userSpaceOnUse" color-interpolation-filters="sRGB"><feFlood flood-opacity="0" result="BackgroundImageFix"/><feColorMatrix in="SourceAlpha" values="0 0 0 0 0 0 0 0 0 0 0 0 0 0 0 0 0 0 127 0" result="hardAlpha"/><feOffset dy="4"/><feGaussianBlur stdDeviation="2"/><feComposite in2="hardAlpha" operator="out"/><feColorMatrix values="0 0 0 0 0 0 0 0 0 0 0 0 0 0 0 0 0 0 0.25 0"/><feBlend in2="BackgroundImageFix" result="effect1_dropShadow_32_6"/><feBlend in="SourceGraphic" in2="effect1_dropShadow_32_6" result="shape"/></filter><filter id="filter2_d_32_6" x="260.345" y="86.512" width="118.243" height="134.813" filterUnits="userSpaceOnUse" color-interpolation-filters="sRGB"><feFlood flood-opacity="0" result="BackgroundImageFix"/><feColorMatrix in="SourceAlpha" values="0 0 0 0 0 0 0 0 0 0 0 0 0 0 0 0 0 0 127 0" result="hardAlpha"/><feOffset dy="2"/><feGaussianBlur stdDeviation="2"/><feComposite in2="hardAlpha" operator="out"/><feColorMatrix values="0 0 0 0 0 0 0 0 0 0 0 0 0 0 0 0 0 0 0.25 0"/><feBlend in2="BackgroundImageFix" result="effect1_dropShadow_32_6"/><feBlend in="SourceGraphic" in2="effect1_dropShadow_32_6" result="shape"/></filter><filter id="filter3_d_32_6" x="71.594" y="260.732" width="120.142" height="134.668" filterUnits="userSpaceOnUse" color-interpolation-filters="sRGB"><feFlood flood-opacity="0" result="BackgroundImageFix"/><feColorMatrix in="SourceAlpha" values="0 0 0 0 0 0 0 0 0 0 0 0 0 0 0 0 0 0 127 0" result="hardAlpha"/><feOffset dy="2"/><feGaussianBlur stdDeviation="2"/><feComposite in2="hardAlpha" operator="out"/><feColorMatrix values="0 0 0 0 0 0 0 0 0 0 0 0 0 0 0 0 0 0 0.25 0"/><feBlend in2="BackgroundImageFix" result="effect1_dropShadow_32_6"/><feBlend in="SourceGraphic" in2="effect1_dropShadow_32_6" result="shape"/></filter></defs></svg>