<svg width="480" height="480" viewBox="0 0 467 480" fill="none" xmlns="http://www.w3.org/2000/svg">
<mask id="mask0_32_6" style="mask-type:alpha" maskUnits="userSpaceOnUse" x="54" y="73" width="244" height="236">
<rect x="207.248" y="73.373" width="139.616" height="199.677" transform="rotate(49.9296 207.248 73.373)" fill="#D9D9D9"/>
</mask>
<g mask="url(#mask0_32_6)">
<g filter="url(#filter0_d_32_6)">
<path fill-rule="evenodd" clip-rule="evenodd" d="M219.51 106.747C221.703 107.551 223.226 109.027 224.077 111.174C225.918 114.696 226.82 118.434 226.785 122.389C237.721 126.975 246.361 134.225 252.704 144.141C254.925 147.673 255.978 151.491 255.862 155.593C254.89 156.369 254 157.146 253.192 157.924C258.193 166.64 260.07 175.977 258.824 185.936C258.243 186.492 257.661 187.048 257.08 187.604C256.158 187.621 255.245 187.714 254.342 187.884C254.661 196.411 253.112 204.609 249.693 212.479C249.22 216.64 250.546 220.122 253.67 222.925C260.002 227.248 266.434 231.414 272.967 235.423C281.612 241.826 286.619 250.323 287.989 260.913C298.792 265.384 305.518 273.35 308.169 284.812C308.787 292.101 310.566 299.084 313.504 305.761C315.936 310.201 319.074 314.066 322.919 317.354C327.925 317.62 329.165 319.81 326.642 323.925C320.591 325.101 314.647 324.55 308.809 322.273C314.094 332.302 321.579 340.286 331.264 346.223C331.67 346.726 331.847 347.299 331.795 347.943C331.237 351.128 329.429 352.188 326.374 351.122C313.087 348.96 300.825 344.208 289.588 336.867C279.438 328.789 276.14 318.509 279.694 306.028C282.42 299.834 284.461 293.43 285.816 286.816C285.923 285.942 285.79 285.105 285.417 284.303C276.557 298.766 263.719 306.18 246.902 306.545C242.556 308.733 239.671 312.196 238.247 316.936C237.631 320.697 237.167 324.481 236.854 328.287C235.199 333.8 231.524 336.943 225.83 337.715C222.2 337.711 218.645 337.176 215.167 336.11C207.31 336.15 200.054 338.264 193.399 342.451C190.259 341.883 187.123 341.282 183.993 340.647C181.616 342.862 178.959 344.623 176.021 345.932C167.842 345.059 163.199 340.592 162.094 332.53C162.704 330.054 164.219 328.457 166.64 327.738C165.952 324.892 166.946 322.828 169.624 321.545C174.156 318.871 178.988 318.259 184.121 319.707C186.567 320.49 188.975 321.379 191.345 322.373C197.048 320.365 202.903 319.814 208.911 320.718C212.28 319.075 214.201 316.348 214.671 312.538C215.095 309.982 215.304 307.407 215.299 304.812C214.609 298.913 213.678 293.049 212.507 287.222C212.298 282.956 212.696 278.754 213.7 274.614C202.087 267.636 193.539 258.035 188.053 245.812C187.134 242.232 186.342 238.648 185.676 235.06C175.056 233.834 165.74 229.679 157.728 222.597C152.421 221.033 148.476 222.69 145.893 227.567C144.771 229.497 144.156 231.569 144.046 233.786C145.775 238.155 146.281 242.644 145.566 247.251C143.139 253.884 138.398 257.231 131.341 257.29C129.9 256.963 128.779 256.179 127.979 254.938C126.531 250.093 126.527 245.198 127.967 240.255C127.941 238.033 127.763 235.829 127.432 233.641C126.299 236.283 124.952 238.832 123.391 241.29C118.658 246.005 113.605 246.309 108.232 242.203C107.754 241.062 107.515 239.881 107.515 238.658C108.908 234.772 110.21 230.855 111.42 226.909C111.85 223.336 112.385 219.781 113.025 216.246C114.072 213.537 115.419 210.988 117.066 208.596C119.226 206.927 121.606 205.69 124.206 204.886C125.36 204.006 126.444 203.044 127.458 202C130.539 195.265 135.606 190.94 142.659 189.024C146.695 188.813 150.311 189.957 153.509 192.454C157.331 195.716 161.205 198.914 165.131 202.047C166.923 203.438 168.912 204.394 171.099 204.913C174.351 200.209 177.941 195.774 181.869 191.61C187.78 186.106 193.966 180.933 200.428 176.091C203.362 173.331 205.635 170.119 207.245 166.455C207.821 164.432 207.943 162.386 207.61 160.317C201.844 163.341 195.756 164.153 189.345 162.753C184.927 165.536 180.646 165.289 176.5 162.01C170.328 155.848 170.129 149.508 175.902 142.989C181.671 139.554 186.923 135.422 191.659 130.594C195.669 127.349 199.979 124.638 204.589 122.461C207.053 118.135 209.051 113.627 210.583 108.937C212.851 108.118 214.505 108.8 215.545 110.983C216.194 109.886 216.903 108.726 217.672 107.502C218.35 107.358 218.962 107.106 219.51 106.747ZM219.866 121.324C219.95 122.555 219.77 123.803 219.327 125.068C219.448 125.823 219.774 126.475 220.307 127.025C231.028 130.805 239.685 137.297 246.277 146.501C243.025 145.496 241.14 146.706 240.619 150.13C246.322 158.037 250.263 166.738 252.44 176.232C251.395 175.535 250.389 174.716 249.422 173.774C246.511 172.705 244.818 173.729 244.345 176.847C247.486 183.372 248.471 190.223 247.299 197.401C245.729 202.739 244.243 208.093 242.842 213.463C242.919 219.398 245.198 224.343 249.68 228.299C256.171 232.687 262.754 236.932 269.427 241.034C278.376 247.787 282.123 256.673 280.667 267.692C283.076 270.936 285.24 270.833 287.161 267.383C295.017 271.778 299.878 278.374 301.742 287.172C302.499 297.761 305.964 307.362 312.137 315.974C310.746 315.842 309.428 315.433 308.181 314.747C305.559 312.817 302.828 311.087 299.989 309.556C298.098 310.03 296.97 311.256 296.605 313.236C300.869 323.565 306.767 332.917 314.302 341.29C308.202 339.52 302.415 337.038 296.94 333.845C288.309 328.907 284.414 321.573 285.255 311.843C287.236 305.076 289.435 298.372 291.852 291.731C292.813 287.824 292.633 283.988 291.313 280.223C288.985 276.721 285.862 275.551 281.944 276.713C274.693 291.655 262.874 299.32 246.487 299.706C239.078 302.157 234.223 307.171 231.922 314.746C231.003 318.468 230.539 322.252 230.53 326.097C228.854 330.131 225.822 331.695 221.433 330.787C214.12 328.402 206.941 328.734 199.898 331.784C197.221 332.908 194.576 334.1 191.965 335.362C188.877 334.618 185.781 333.942 182.677 333.333C180.219 335.232 177.712 337.073 175.155 338.856C168.084 336.553 167.91 334.158 174.633 331.673C176.299 330.022 176.606 328.17 175.554 326.117C177.662 325.632 179.788 325.604 181.93 326.032C185.31 327.323 188.698 328.538 192.092 329.674C197.369 327.047 202.924 326.337 208.758 327.544C214.821 326.348 218.734 322.755 220.495 316.766C222.314 310.068 222.617 303.321 221.404 296.527C216.707 283.369 219.392 271.934 229.457 262.22C230.01 258.606 228.527 257.056 225.008 257.567C221.371 260.4 218.561 263.904 216.578 268.077C205.327 261.712 197.643 252.472 193.524 240.358C193.294 238.797 193.063 237.236 192.833 235.676C196.94 235.274 201.014 234.645 205.054 233.787C207.342 231.659 207.389 229.573 205.194 227.53C201.356 227.77 197.516 228.139 193.673 228.638C175.48 228.896 161.69 221.227 152.303 205.63C147.768 202.257 143.032 201.961 138.096 204.742C130.782 208.99 124.887 214.7 120.411 221.874C119.675 224.385 119.924 226.819 121.158 229.176C120.866 232.628 119.511 235.557 117.091 237.962C116.227 238.39 115.393 238.333 114.591 237.793C117.456 231.654 119.042 225.202 119.35 218.436C120.001 216.478 120.952 214.678 122.203 213.037C129.149 210.552 134.26 205.962 137.535 199.266C140.327 195.704 143.761 194.833 147.838 196.652C152.4 200.347 156.985 204.015 161.591 207.659C164.573 209.875 167.881 211.239 171.515 211.751C173.373 211.43 175.022 210.67 176.461 209.472C179.169 205.048 182.296 200.944 185.842 197.162C192.785 190.981 199.826 184.917 206.965 178.969C212.446 173.528 214.945 166.982 214.462 159.332C213.629 157.039 212.577 154.854 211.308 152.774C210.364 151.869 209.234 151.464 207.92 151.56C205.622 153.251 203.198 154.752 200.649 156.063C198.46 156.544 196.255 156.723 194.035 156.598C194.341 154.92 194.569 153.218 194.719 151.492C192.38 148.554 190.215 148.658 188.224 151.801C187.808 154.121 186.703 156.031 184.909 157.532C180.581 157.822 178.427 155.725 178.448 151.241C179.435 148.201 181.524 146.426 184.714 145.918C190.202 140.499 196.079 135.547 202.347 131.061C204.21 129.917 206.202 129.051 208.324 128.463C210.156 125.986 211.957 123.485 213.728 120.959C214.966 122.497 216.545 123.14 218.465 122.886C219.095 122.507 219.562 121.986 219.866 121.324ZM148.406 211.916C149.263 212.984 149.996 214.139 150.605 215.38C148.332 215.895 146.335 216.951 144.615 218.547C144.992 215.842 146.256 213.632 148.406 211.916ZM139.305 211.712C139.119 212.956 138.824 214.239 138.422 215.563C134.046 219.251 130.496 223.61 127.772 228.641C127.55 226.906 127.209 225.191 126.749 223.496C130.504 219.088 134.69 215.161 139.305 211.712ZM140.426 222.664C136.824 228.501 136.383 234.6 139.105 240.96C140.181 245.764 138.367 248.834 133.663 250.171C133.627 247.431 133.915 244.706 134.529 241.995C134.834 238.611 134.681 235.269 134.071 231.969C134.643 230.16 135.514 228.511 136.686 227.019C138.062 225.668 139.308 224.216 140.426 222.664Z" fill="white"/>
</g>
</g>
<mask id="mask1_32_6" style="mask-type:alpha" maskUnits="userSpaceOnUse" x="154" y="171" width="244" height="236">
<rect x="244.79" y="406.724" width="139.616" height="199.677" transform="rotate(-130.07 244.79 406.724)" fill="#D9D9D9"/>
</mask>
<g mask="url(#mask1_32_6)">
<g filter="url(#filter1_d_32_6)">
<path fill-rule="evenodd" clip-rule="evenodd" d="M232.714 378.316C230.52 377.511 228.998 376.035 228.146 373.888C226.306 370.367 225.403 366.629 225.438 362.673C214.503 358.088 205.863 350.837 199.52 340.922C197.299 337.389 196.246 333.572 196.362 329.469C197.333 328.693 198.223 327.916 199.032 327.139C194.031 318.423 192.153 309.086 193.399 299.127C193.981 298.571 194.562 298.015 195.144 297.459C196.066 297.442 196.979 297.348 197.882 297.179C197.562 288.652 199.112 280.454 202.531 272.584C203.004 268.423 201.678 264.941 198.553 262.137C192.222 257.815 185.79 253.649 179.256 249.64C170.612 243.236 165.605 234.739 164.234 224.149C153.432 219.679 146.705 211.712 144.055 200.25C143.436 192.961 141.658 185.978 138.719 179.302C136.288 174.861 133.15 170.997 129.304 167.709C124.299 167.442 123.058 165.252 125.582 161.138C131.632 159.962 137.577 160.513 143.414 162.789C138.13 152.76 130.645 144.777 120.959 138.839C120.553 138.337 120.376 137.764 120.429 137.12C120.987 133.935 122.794 132.875 125.85 133.941C139.137 136.103 151.398 140.854 162.635 148.196C172.786 156.274 176.084 166.553 172.53 179.035C169.803 185.229 167.763 191.633 166.408 198.247C166.301 199.12 166.434 199.958 166.807 200.76C175.666 186.297 188.504 178.882 205.321 178.518C209.668 176.33 212.553 172.866 213.977 168.126C214.592 164.365 215.057 160.582 215.369 156.776C217.025 151.262 220.699 148.12 226.393 147.348C230.024 147.352 233.579 147.887 237.056 148.953C244.914 148.913 252.17 146.799 258.824 142.611C261.965 143.179 265.1 143.781 268.231 144.415C270.607 142.201 273.265 140.439 276.203 139.131C284.382 140.003 289.025 144.47 290.13 152.532C289.52 155.008 288.005 156.606 285.584 157.324C286.272 160.17 285.277 162.235 282.599 163.518C278.068 166.191 273.236 166.804 268.103 165.355C265.656 164.573 263.248 163.684 260.878 162.689C255.176 164.697 249.321 165.249 243.313 164.345C239.943 165.988 238.023 168.714 237.553 172.524C237.129 175.081 236.919 177.656 236.924 180.25C237.615 186.149 238.546 192.013 239.717 197.841C239.925 202.106 239.528 206.308 238.524 210.448C250.136 217.427 258.685 227.027 264.171 239.25C265.09 242.831 265.882 246.415 266.548 250.002C277.167 251.229 286.484 255.383 294.496 262.466C299.803 264.029 303.748 262.373 306.331 257.495C307.452 255.566 308.068 253.493 308.177 251.277C306.448 246.907 305.942 242.418 306.658 237.812C309.084 231.178 313.826 227.832 320.883 227.773C322.324 228.1 323.444 228.883 324.245 230.125C325.693 234.97 325.697 239.864 324.257 244.808C324.283 247.029 324.461 249.234 324.792 251.421C325.925 248.78 327.272 246.23 328.833 243.772C333.566 239.057 338.619 238.753 343.992 242.86C344.47 244 344.709 245.182 344.709 246.404C343.316 250.29 342.014 254.207 340.803 258.154C340.374 261.727 339.839 265.281 339.199 268.817C338.151 271.525 336.804 274.075 335.157 276.466C332.997 278.136 330.617 279.373 328.017 280.176C326.864 281.057 325.78 282.019 324.766 283.063C321.684 289.798 316.617 294.123 309.565 296.039C305.529 296.249 301.912 295.106 298.715 292.609C294.893 289.347 291.019 286.149 287.092 283.015C285.301 281.624 283.312 280.669 281.124 280.15C277.873 284.854 274.283 289.288 270.355 293.453C264.444 298.956 258.258 304.129 251.796 308.972C248.861 311.731 246.589 314.943 244.978 318.608C244.402 320.631 244.28 322.677 244.613 324.746C250.38 321.722 256.468 320.91 262.879 322.309C267.296 319.526 271.578 319.774 275.724 323.053C281.895 329.214 282.095 335.555 276.322 342.074C270.553 345.509 265.301 349.64 260.565 354.469C256.554 357.714 252.244 360.425 247.635 362.601C245.171 366.927 243.173 371.435 241.641 376.125C239.372 376.944 237.718 376.262 236.679 374.079C236.029 375.176 235.32 376.336 234.552 377.56C233.874 377.705 233.261 377.957 232.714 378.316ZM232.358 363.739C232.274 362.507 232.453 361.259 232.897 359.995C232.776 359.24 232.45 358.587 231.916 358.038C221.196 354.257 212.539 347.765 205.946 338.562C209.198 339.567 211.084 338.357 211.605 334.933C205.902 327.025 201.961 318.325 199.783 308.831C200.828 309.527 201.834 310.347 202.802 311.289C205.713 312.358 207.405 311.333 207.878 308.215C204.738 301.691 203.753 294.84 204.924 287.662C206.495 282.324 207.98 276.97 209.382 271.599C209.305 265.665 207.026 260.72 202.544 256.763C196.052 252.375 189.47 248.13 182.797 244.028C173.847 237.275 170.101 228.389 171.557 217.37C169.148 214.126 166.983 214.23 165.062 217.68C157.206 213.285 152.346 206.688 150.481 197.89C149.725 187.301 146.259 177.701 140.086 169.088C141.478 169.221 142.796 169.63 144.042 170.315C146.665 172.245 149.396 173.976 152.235 175.507C154.125 175.033 155.253 173.806 155.618 171.827C151.355 161.497 145.456 152.146 137.922 143.772C144.021 145.542 149.808 148.024 155.283 151.218C163.915 156.156 167.81 163.49 166.969 173.219C164.988 179.986 162.788 186.69 160.372 193.331C159.411 197.238 159.591 201.074 160.911 204.839C163.239 208.341 166.362 209.511 170.279 208.35C177.53 193.407 189.35 185.742 205.737 185.356C213.145 182.905 218 177.892 220.302 170.317C221.22 166.594 221.684 162.811 221.694 158.966C223.37 154.932 226.402 153.368 230.791 154.276C238.104 156.661 245.282 156.329 252.325 153.278C255.003 152.155 257.647 150.962 260.259 149.7C263.347 150.444 266.443 151.12 269.547 151.729C272.004 149.831 274.512 147.99 277.069 146.207C284.139 148.51 284.313 150.904 277.591 153.389C275.925 155.041 275.618 156.893 276.669 158.946C274.561 159.43 272.436 159.459 270.294 159.031C266.913 157.739 263.526 156.525 260.131 155.388C254.854 158.016 249.299 158.726 243.466 157.519C237.402 158.715 233.49 162.308 231.729 168.296C229.91 174.995 229.607 181.741 230.82 188.536C235.516 201.694 232.832 213.129 222.767 222.843C222.213 226.456 223.696 228.007 227.215 227.495C230.853 224.662 233.663 221.159 235.646 216.985C246.897 223.35 254.581 232.59 258.699 244.705C258.93 246.265 259.161 247.826 259.391 249.387C255.284 249.788 251.21 250.418 247.17 251.275C244.881 253.404 244.835 255.489 247.03 257.532C250.868 257.292 254.708 256.923 258.55 256.425C276.743 256.167 290.533 263.836 299.921 279.433C304.456 282.806 309.192 283.101 314.128 280.32C321.442 276.073 327.337 270.362 331.813 263.188C332.549 260.677 332.3 258.244 331.066 255.887C331.357 252.435 332.713 249.506 335.132 247.1C335.997 246.672 336.83 246.729 337.633 247.27C334.768 253.408 333.182 259.86 332.874 266.627C332.223 268.585 331.272 270.385 330.021 272.026C323.075 274.51 317.963 279.1 314.688 285.796C311.896 289.358 308.462 290.23 304.386 288.411C299.823 284.716 295.239 281.047 290.633 277.403C287.651 275.188 284.343 273.824 280.708 273.311C278.85 273.633 277.202 274.393 275.763 275.591C273.055 280.015 269.928 284.118 266.382 287.901C259.439 294.081 252.398 300.146 245.259 306.094C239.778 311.535 237.278 318.08 237.762 325.73C238.595 328.023 239.646 330.209 240.916 332.289C241.86 333.194 242.989 333.599 244.303 333.503C246.602 331.812 249.026 330.311 251.575 328.999C253.764 328.518 255.968 328.339 258.188 328.464C257.883 330.143 257.655 331.845 257.505 333.571C259.844 336.508 262.009 336.405 263.999 333.261C264.416 330.942 265.521 329.032 267.315 327.531C271.643 327.241 273.796 329.338 273.775 333.822C272.788 336.862 270.7 338.636 267.51 339.145C262.022 344.564 256.144 349.516 249.876 354.001C248.014 355.146 246.021 356.012 243.9 356.599C242.067 359.076 240.266 361.578 238.496 364.104C237.258 362.565 235.679 361.923 233.758 362.177C233.129 362.556 232.662 363.076 232.358 363.739ZM303.817 273.146C302.961 272.078 302.228 270.924 301.619 269.682C303.892 269.168 305.889 268.112 307.608 266.516C307.232 269.22 305.968 271.431 303.817 273.146ZM312.918 273.35C313.105 272.107 313.399 270.824 313.801 269.5C318.178 265.812 321.728 261.453 324.452 256.422C324.673 258.157 325.014 259.872 325.475 261.566C321.719 265.974 317.534 269.902 312.918 273.35ZM311.798 262.398C315.4 256.561 315.84 250.463 313.119 244.103C312.043 239.299 313.857 236.228 318.561 234.892C318.597 237.631 318.308 240.357 317.695 243.067C317.39 246.452 317.542 249.794 318.153 253.094C317.581 254.902 316.71 256.552 315.538 258.043C314.162 259.395 312.915 260.846 311.798 262.398Z" fill="white"/>
</g>
</g>
<g filter="url(#filter2_d_32_6)">
<path d="M270.649 126.615L267.475 123.513L283.019 114.348L286.363 120.489L277.432 125.733L270.649 126.615ZM268.14 106.023L267.204 98.8311L282.606 96.8276L283.375 104.041L268.14 106.023ZM275.153 126.029L267.925 126.97L264.345 89.4523L271.573 88.512L275.153 126.029Z" fill="white"/>
<path d="M304.578 93.9693L311.75 93.0362L314.417 120.921L307.188 121.862L304.578 93.9693ZM285.506 96.4502L292.735 95.5099L295.401 123.395L288.173 124.335L285.506 96.4502ZM307.188 121.862L300.685 116.642L295.345 123.402L294.12 113.981L299.808 107.289L306.48 112.94L307.188 121.862Z" fill="white"/>
<path d="M323.086 119.794L315.914 120.727L313.248 92.8414L320.476 91.9011L323.086 119.794ZM337.71 117.891L330.481 118.832L327.815 90.9463L335.043 90.006L337.71 117.891ZM317.028 92.3496L331.207 90.5051L332.142 97.6966L317.964 99.541L317.028 92.3496ZM319.03 112.951L333.208 111.107L334.151 118.354L319.973 120.199L319.03 112.951Z" fill="white"/>
<path d="M276.088 168.426L272.914 165.324L288.458 156.159L291.802 162.3L282.872 167.543L276.088 168.426ZM273.579 147.833L272.643 140.642L288.045 138.638L288.814 145.851L273.579 147.833ZM280.592 167.84L273.364 168.78L269.784 131.263L277.012 130.323L280.592 167.84Z" fill="white"/>
<path d="M297.68 150.48L293.926 144.223L307.348 136.127L310.527 142.743L297.68 150.48ZM300.618 165.235L293.389 166.175L290.779 138.283L297.951 137.35L300.618 165.235Z" fill="white"/>
<path d="M321.534 162.514L314.306 163.454L311.695 135.562L318.923 134.621L321.534 162.514ZM318.742 131.924L311.57 132.857L310.893 125.915L318.121 124.975L318.742 131.924Z" fill="white"/>
<path d="M331.966 161.157L324.793 162.09L322.127 134.205L329.355 133.264L331.966 161.157ZM327.629 161.721L324.455 158.619L341.566 148.456L342.545 155.982L334.357 160.846L327.629 161.721ZM326.176 140.991L325.241 133.799L340.093 131.924L340.744 139.096L326.176 140.991Z" fill="white"/>
<path d="M352.423 158.495L345.251 159.428L341.671 121.911L348.899 120.971L352.423 158.495ZM351.227 150.601L348.178 142.38L357.374 129.619L367.271 128.332L351.227 150.601ZM354.353 138.119L369.66 156.253L361.653 157.295L352.793 146.996L354.353 138.119Z" fill="white"/>
<path d="M297.317 173.402L299.398 195.921L299.485 196.59L288.982 202.776L284.867 203.311L285.858 214.407L278.797 215.325L275.188 176.281L278.969 175.789L282.416 175.341L290.089 174.343L294.537 173.764L297.317 173.402ZM290.809 181.619L290.802 181.563L283.073 182.569L284.229 195.797L287.843 195.327L291.885 192.931L290.809 181.619Z" fill="white"/>
<path d="M309.746 200.188L302.574 201.121L299.907 173.236L307.136 172.295L309.746 200.188ZM324.369 198.285L317.141 199.226L314.475 171.34L321.703 170.4L324.369 198.285ZM303.688 172.744L317.867 170.899L318.802 178.091L304.624 179.935L303.688 172.744ZM305.69 193.346L319.868 191.501L320.811 198.748L306.633 200.593L305.69 193.346Z" fill="white"/>
<path d="M334.96 196.908L327.732 197.848L325.121 169.956L332.349 169.015L334.96 196.908ZM330.077 182.406L326.267 176.156L339.744 168.053L342.868 174.677L330.077 182.406ZM349.583 195.005L342.355 195.946L339.689 168.06L346.917 167.12L349.583 195.005Z" fill="white"/>
<path d="M374.588 199.406L367.773 203.524L364.251 165.149L371.479 164.208L374.588 199.406ZM359.689 193.974L352.517 194.907L349.85 167.022L357.078 166.082L359.689 193.974ZM355.352 194.538L352.185 191.492L369.289 181.274L370.275 188.855L362.08 193.663L355.352 194.538ZM360.119 208.148L356.31 201.897L369.787 193.794L372.91 200.418L360.119 208.148Z" fill="white"/>
</g>
<g filter="url(#filter3_d_32_6)">
<path d="M180.784 351.287L184.012 354.333L168.63 363.768L165.18 357.686L174.017 352.288L180.784 351.287ZM183.652 371.833L184.712 379.007L169.348 381.278L168.454 374.08L183.652 371.833ZM176.291 351.951L183.502 350.885L187.735 388.334L180.525 389.401L176.291 351.951Z" fill="white"/>
<path d="M147.43 384.519L140.274 385.577L137.123 357.742L144.333 356.676L147.43 384.519ZM166.455 381.706L159.244 382.772L156.092 354.938L163.303 353.872L166.455 381.706ZM144.333 356.676L150.926 361.782L156.148 354.93L157.537 364.328L151.967 371.119L145.197 365.584L144.333 356.676Z" fill="white"/>
<path d="M128.474 359.021L135.629 357.963L138.781 385.798L131.57 386.864L128.474 359.021ZM113.886 361.178L121.097 360.112L124.248 387.946L117.038 389.012L113.886 361.178ZM135.009 386.355L120.865 388.446L119.804 381.272L133.948 379.181L135.009 386.355ZM132.649 365.791L118.505 367.883L117.436 360.653L131.58 358.562L132.649 365.791Z" fill="white"/>
<path d="M174.618 309.578L177.845 312.624L162.463 322.058L159.013 315.976L167.851 310.578L174.618 309.578ZM177.485 330.123L178.546 337.297L163.182 339.569L162.287 332.37L177.485 330.123ZM170.125 310.242L177.336 309.176L181.569 346.625L174.358 347.691L170.125 310.242Z" fill="white"/>
<path d="M153.341 327.896L157.204 334.088L143.925 342.416L140.632 335.856L153.341 327.896ZM150.148 313.195L157.358 312.129L160.455 339.972L153.299 341.03L150.148 313.195Z" fill="white"/>
<path d="M129.282 316.28L136.492 315.214L139.589 343.057L132.378 344.123L129.282 316.28ZM132.606 346.817L139.761 345.759L140.559 352.688L133.348 353.754L132.606 346.817Z" fill="white"/>
<path d="M118.875 317.819L126.03 316.761L129.182 344.596L121.971 345.662L118.875 317.819ZM123.202 317.179L126.429 320.225L109.498 330.685L108.388 323.177L116.49 318.171L123.202 317.179ZM125.015 337.881L126.076 345.055L111.258 347.189L110.483 340.029L125.015 337.881Z" fill="white"/>
<path d="M98.4672 320.836L105.622 319.778L109.855 357.227L102.645 358.293L98.4672 320.836ZM99.8011 328.708L102.992 336.875L94.0199 349.794L84.1468 351.254L99.8011 328.708ZM96.8932 341.243L81.2724 323.378L89.2597 322.197L98.2976 332.34L96.8932 341.243Z" fill="white"/>
<path d="M153.305 304.971L150.832 282.492L150.733 281.825L161.128 275.458L165.233 274.851L164.048 263.774L171.093 262.732L175.381 301.708L171.61 302.265L168.171 302.774L160.516 303.905L156.079 304.561L153.305 304.971ZM159.669 296.643L159.677 296.699L167.387 295.559L166.001 282.352L162.396 282.885L158.397 285.352L159.669 296.643Z" fill="white"/>
<path d="M140.412 278.407L147.567 277.349L150.718 305.183L143.508 306.249L140.412 278.407ZM125.824 280.563L133.034 279.497L136.186 307.332L128.975 308.398L125.824 280.563ZM146.947 305.741L132.803 307.832L131.742 300.658L145.886 298.567L146.947 305.741ZM144.587 285.177L130.442 287.268L129.374 280.039L143.518 277.947L144.587 285.177Z" fill="white"/>
<path d="M115.259 282.125L122.469 281.059L125.565 308.902L118.355 309.968L115.259 282.125ZM120.394 296.539L124.312 302.723L110.978 311.059L107.739 304.491L120.394 296.539ZM100.671 284.282L107.881 283.216L111.033 311.051L103.822 312.117L100.671 284.282Z" fill="white"/>
<path d="M75.5934 280.318L82.3354 276.082L86.5254 314.39L79.3147 315.456L75.5934 280.318ZM90.5845 285.489L97.7397 284.431L100.891 312.266L93.6807 313.332L90.5845 285.489ZM94.9109 284.85L98.1303 287.84L81.2074 298.355L80.0892 290.792L88.1994 285.842L94.9109 284.85ZM89.9074 271.325L93.8256 277.509L80.4914 285.845L77.2532 279.277L89.9074 271.325Z" fill="white"/>
</g>
<defs>
<filter id="filter0_d_32_6" x="103.515" y="106.747" width="232.289" height="252.775" filterUnits="userSpaceOnUse" color-interpolation-filters="sRGB">
<feFlood flood-opacity="0" result="BackgroundImageFix"/>
<feColorMatrix in="SourceAlpha" type="matrix" values="0 0 0 0 0 0 0 0 0 0 0 0 0 0 0 0 0 0 127 0" result="hardAlpha"/>
<feOffset dy="4"/>
<feGaussianBlur stdDeviation="2"/>
<feComposite in2="hardAlpha" operator="out"/>
<feColorMatrix type="matrix" values="0 0 0 0 0 0 0 0 0 0 0 0 0 0 0 0 0 0 0.25 0"/>
<feBlend mode="normal" in2="BackgroundImageFix" result="effect1_dropShadow_32_6"/>
<feBlend mode="normal" in="SourceGraphic" in2="effect1_dropShadow_32_6" result="shape"/>
</filter>
<filter id="filter1_d_32_6" x="116.42" y="133.54" width="232.289" height="252.775" filterUnits="userSpaceOnUse" color-interpolation-filters="sRGB">
<feFlood flood-opacity="0" result="BackgroundImageFix"/>
<feColorMatrix in="SourceAlpha" type="matrix" values="0 0 0 0 0 0 0 0 0 0 0 0 0 0 0 0 0 0 127 0" result="hardAlpha"/>
<feOffset dy="4"/>
<feGaussianBlur stdDeviation="2"/>
<feComposite in2="hardAlpha" operator="out"/>
<feColorMatrix type="matrix" values="0 0 0 0 0 0 0 0 0 0 0 0 0 0 0 0 0 0 0.25 0"/>
<feBlend mode="normal" in2="BackgroundImageFix" result="effect1_dropShadow_32_6"/>
<feBlend mode="normal" in="SourceGraphic" in2="effect1_dropShadow_32_6" result="shape"/>
</filter>
<filter id="filter2_d_32_6" x="260.345" y="86.5117" width="118.243" height="134.813" filterUnits="userSpaceOnUse" color-interpolation-filters="sRGB">
<feFlood flood-opacity="0" result="BackgroundImageFix"/>
<feColorMatrix in="SourceAlpha" type="matrix" values="0 0 0 0 0 0 0 0 0 0 0 0 0 0 0 0 0 0 127 0" result="hardAlpha"/>
<feOffset dy="2"/>
<feGaussianBlur stdDeviation="2"/>
<feComposite in2="hardAlpha" operator="out"/>
<feColorMatrix type="matrix" values="0 0 0 0 0 0 0 0 0 0 0 0 0 0 0 0 0 0 0.25 0"/>
<feBlend mode="normal" in2="BackgroundImageFix" result="effect1_dropShadow_32_6"/>
<feBlend mode="normal" in="SourceGraphic" in2="effect1_dropShadow_32_6" result="shape"/>
</filter>
<filter id="filter3_d_32_6" x="71.5938" y="260.732" width="120.142" height="134.668" filterUnits="userSpaceOnUse" color-interpolation-filters="sRGB">
<feFlood flood-opacity="0" result="BackgroundImageFix"/>
<feColorMatrix in="SourceAlpha" type="matrix" values="0 0 0 0 0 0 0 0 0 0 0 0 0 0 0 0 0 0 127 0" result="hardAlpha"/>
<feOffset dy="2"/>
<feGaussianBlur stdDeviation="2"/>
<feComposite in2="hardAlpha" operator="out"/>
<feColorMatrix type="matrix" values="0 0 0 0 0 0 0 0 0 0 0 0 0 0 0 0 0 0 0.25 0"/>
<feBlend mode="normal" in2="BackgroundImageFix" result="effect1_dropShadow_32_6"/>
<feBlend mode="normal" in="SourceGraphic" in2="effect1_dropShadow_32_6" result="shape"/>
</filter>
</defs>
</svg>
